<svg xmlns="http://www.w3.org/2000/svg" xmlns:xlink="http://www.w3.org/1999/xlink" viewBox="0 0 1920 405">
  <defs>
    <style>
      .cls-1 {
        clip-path: url(#clip-Web_1920_1);
      }

      .cls-2 {
        fill: #bcbcbc;
        opacity: 0.128;
      }

      .cls-2, .cls-3 {
        stroke: #000;
        stroke-width: 1px;
      }

      .cls-3 {
        fill: #969696;
        opacity: 0.052;
      }

      .cls-4 {
        opacity: 0.042;
      }

      .cls-5 {
        fill: #fff;
      }
    </style>
    <clipPath id="clip-Web_1920_1">
      <rect width="1920" height="405"/>
    </clipPath>
  </defs>
  <g id="Web_1920_1" data-name="Web 1920 – 1" class="cls-1">
    <rect class="cls-5" width="1920" height="405"/>
    <path id="Path_3" data-name="Path 3" class="cls-2" d="M0,487.623,160.452,375.235l140.933,89.957L437.245,356.906,542.6,347.558l109.84,54.679L766.859,336.4,882.51,382.255l113.739,43.168,115.343-158.857,113.819,185.65,117.218-69.962,118.486,10.156,108.274-188.789,117.685,239.372L1803.4,356.906,1918.65,487.623Z" transform="translate(0 -82.623)"/>
    <path id="Path_1" data-name="Path 1" class="cls-3" d="M0,346.354,163.767,181.726,301.385,331.352,434.3,289.245,542.221,162.036l110.22,127.208,114.417-44.032,113.283-63.487L996.249,304.753l115.668-45.828,113.494,63.748L1342.4,207.026l118.714,75.647,111.793-23.748,114.166,57.58,116.329-57.58,115.247,87.429Z" transform="translate(0 58.646)"/>
    <path id="Path_2" data-name="Path 2" class="cls-4" d="M1921.35,261.542l-169.069-81.382-132.741,72.619-133.106-24.595-106.388-48.024L1267.99,228.185l-114.578-25.719-113.443-37.083L923.7,237.243,808.194,175.182,694.214,247.71,577.06,180.161,458.179,224.346,348.911,128.254,231.9,244.107,115.41,210.475,0,261.542Z" transform="translate(-1.35 143.458)"/>
  </g>
</svg>